/* XPM */
static char *ce87baba0f334cc09f53997a6989ce3dtUsYJr6htjA1tdEI[] = {
/* columns rows colors chars-per-pixel */
"48 48 58 1 ",
"  c None",
". c #801214",
"X c #801216",
"o c #8A1216",
"O c #8F1317",
"+ c #8A1218",
"@ c #981419",
"# c #9A151A",
"$ c #A01518",
"% c #A3151A",
"& c #A8161B",
"* c #AB161A",
"= c #AB161B",
"- c #AD171B",
"; c #B3161D",
": c #B3171D",
"> c #B4171D",
", c #B8171C",
"< c #B1181C",
"1 c #BA181D",
"2 c #BC191E",
"3 c #BE191F",
"4 c #C0181D",
"5 c #C3191F",
"6 c #C8181F",
"7 c #C61A20",
"8 c #C71A20",
"9 c #CD1A20",
"0 c #CF1B21",
"q c #D11B20",
"w c #D21A20",
"e c #D41A21",
"r c #D51A21",
"t c #DE1B21",
"y c #DC1B23",
"u c #DE1B23",
"i c #D81C21",
"p c #D81C22",
"a c #DB1C22",
"s c #E01C22",
"d c #E11C23",
"f c #E21C22",
"g c #E51C22",
"h c #E41C23",
"j c #E61C23",
"k c #E61D23",
"l c #E71C24",
"z c #E71D24",
"x c #E71E24",
"c c #EB1C23",
"v c #EC1C23",
"b c #E81D24",
"n c #E91D24",
"m c #EA1C24",
"M c #EA1D24",
"N c #EC1C24",
"B c #EC1D24",
"V c #ED1D24",
/* pixels */
"                                                ",
"   B,ks                                         ",
"   vvvv                                         ",
"   kvv2                                         ",
"    vx                                          ",
"    7                                           ",
"                                                ",
"                                                ",
"                                                ",
"                                                ",
"                                                ",
"                1vvvvq     rvvvv>               ",
"               svvvvvvh   kvvvvvvu              ",
"              ivvvvvvvv& :vvvvvvvvr             ",
"             Xvvvvvvvvvx mvvvvvvvvv             ",
"             0vvvvvvvvvv vvvvvvvvvv5            ",
"             Bvvvvvvvvvvvvvvvvvvvvvm            ",
"             vvvvvvvvvvvvvvvvvvvvvvv            ",
"             mvvvvvvvvvvvvvvvvvvvvvs            ",
"             8vvvvvvvvvvvvvvvvvvvvv2            ",
"             +vvvvvvvvvvvvvvvvvvvvvX            ",
"              Bvvvvvvvvvvvvvvvvvvvc             ",
"              &vvvvvvvvvvvvvvvvvvv%             ",
"               mvvvvvvvvvvvvvvvvcx              ",
"               ovvvvvvvvvvvvvvvvcX              ",
"                qvvvvvvvvvvvvvvv0               ",
"                 Bvvvvvvvvvvvvvc                ",
"                 #vvvvvvvvvvvvvO                ",
"                  iBvvvvvvvvvvq                 ",
"                   NvvvvvvvvvB                  ",
"                   %vvvvvvvvv#                  ",
"                    uvvvvvvva                   ",
"                     vvvvvvv                    ",
"                     >vvvvc-                    ",
"                      kvvvd                     ",
"                       vvv                      ",
"                       7v4                      ",
"                        m                       ",
"                                                ",
"                                                ",
"                                                ",
"                                                ",
"                                                ",
"                                            -   ",
"                                           kv   ",
"                                          :vvu  ",
"                                          ccvv  ",
"                                          mm6v  "
};
