/* XPM */
static char *_50b8a4a070a445dfb72d295ce23e58cTmujfQLNcYJxTi1R[] = {
/* columns rows colors chars-per-pixel */
"64 64 78 1 ",
"  c None",
". c #7F1214",
"X c #811216",
"o c #871216",
"O c #861317",
"+ c #911317",
"@ c #901417",
"# c #981417",
"$ c #951318",
"% c #941319",
"& c #991419",
"* c #9E1519",
"= c #9F151A",
"- c #A3161A",
"; c #A71519",
": c #A5151A",
"> c #A7171B",
", c #AD151B",
"< c #AF171B",
"1 c #AF171D",
"2 c #A8181B",
"3 c #AE191D",
"4 c #B1161C",
"5 c #B6171D",
"6 c #B8171C",
"7 c #B8171E",
"8 c #B4181D",
"9 c #B4191D",
"0 c #B7191E",
"q c #B8181E",
"w c #B8191E",
"e c #BD181E",
"r c #BD1A20",
"t c #C0171E",
"y c #C1181E",
"u c #C2191E",
"i c #C7191F",
"p c #CB191F",
"a c #C71A20",
"s c #C91A20",
"d c #CD1B21",
"f c #CE1A20",
"g c #CF1A20",
"h c #D61A21",
"j c #D61B21",
"k c #D41C22",
"l c #D81A22",
"z c #D91B22",
"x c #DD1B23",
"c c #DA1C21",
"v c #DD1C21",
"b c #DC1D22",
"n c #DD1D22",
"m c #DE1D22",
"M c #E11C22",
"N c #E11D22",
"B c #E21D22",
"V c #E61C23",
"C c #E71C23",
"Z c #E61D23",
"A c #E71D23",
"S c #E01C24",
"D c #E11C24",
"F c #E11D24",
"G c #E51D24",
"H c #E71C24",
"J c #E71D24",
"K c #E61D25",
"L c #E51E24",
"P c #EB1C23",
"I c #EC1C23",
"U c #EC1D23",
"Y c #E81D24",
"T c #EB1C24",
"R c #EA1D24",
"E c #E81E25",
"W c #EC1D24",
"Q c #ED1D24",
/* pixels */
"                                                                ",
"    xd Mu                                                       ",
"   8PPcPP                                                       ",
"   ;PPPPP                                                       ",
"    WPPPz                                                       ",
"    =PPU                                                        ",
"     bP2                                                        ",
"      M                                                         ",
"                                                                ",
"                                                                ",
"                                                                ",
"                                                                ",
"                                                                ",
"                                                                ",
"                      ;GPPY7        =GPPWe                      ",
"                     YPPPIIUUo     YPPPPUPP3                    ",
"                   #PPPPPPPPPP    CPPPPPPPPPu                   ",
"                   PPPPPPPPPPPM  9PPPPPPPPPPY4                  ",
"                  GPPPPPPPPPPPP  WPPPPPPPPPPUI                  ",
"                  PPPPPPPPPPPPP. PPPPPPPPPPPPI7                 ",
"                 tPPPPPPPPPPPPP< PPPPPPPPPPPPPY                 ",
"                 GPPPPPPPPPPPPPPPPPPPPPPPPPPPPI                 ",
"                 UPPPPPPPPPPPPPPPPPPPPPPPPPPPPP                 ",
"                 WPPPPPPPPPPPPPPPPPPPPPPPPPPPPP                 ",
"                 zIPPPPPPPPPPPPPPPPPPPPPPPPPPPP                 ",
"                 4PPPPPPPPPPPPPPPPPPPPPPPPPPPPC                 ",
"                  PPPPPPPPPPPPPPPPPPPPPPPPPPPP5                 ",
"                  WPPPPPPPPPPPPPPPPPPPPPPPPPPP                  ",
"                  8WUIPPPPPPPPPPPPPPPPPPPPPPPM                  ",
"                   UPPPPPPPPPPPPPPPPPPPPPPPPP                   ",
"                   <PPPPPPPPPPPPPPPPPPPPPPPPb                   ",
"                    YPPPPPPPPPPPPPPPPPPPPPPU                    ",
"                    XIPPPPPPPPPPPPPPPPPPPPPr                    ",
"                     dPPPPPPPPPPPPPPPPPPPPY                     ",
"                      UPPPPPPPPPPPPPPPPPUI                      ",
"                      @PPPPPPPPPPPPPPPPPYs                      ",
"                       kPPPPPPPPPPPPPPPPY                       ",
"                        WUPPPPPPPPPPPPPPo                       ",
"                        &PPPPPPPPPPPPIPd                        ",
"                         zPPPPPPPPPPPIU                         ",
"                          UPPPPPPPPPPP%                         ",
"                          >PPPPPPPPPPh                          ",
"                           DPPPPPPPPU                           ",
"                            PPPPPPPP-                           ",
"                            7UPPPPPS                            ",
"                             GPPPPU                             ",
"                              PPPI7                             ",
"                              pIPG                              ",
"                               UU                               ",
"                               %p                               ",
"                                                                ",
"                                                                ",
"                                                                ",
"                                                                ",
"                                                                ",
"                                                                ",
"                                                                ",
"                                                         Gh     ",
"                                                        wPP+    ",
"                                                        UPPI    ",
"                                                       bPPPPe   ",
"                                                       PPPPPW   ",
"                                                       DP6bPp   ",
"                                                                "
};
