/* XPM */
static char *ddc20ef71ab54961e156a6b885ac791cpaZSBeu0bMmvYLe3[] = {
/* columns rows colors chars-per-pixel */
"16 16 19 1 ",
"  c None",
". c #7A1014",
"X c #991417",
"o c #981319",
"O c #991418",
"+ c #A4151A",
"@ c #A8151B",
"# c #A9151B",
"$ c #AF161C",
"% c #B0161B",
"& c #B5161D",
"* c #B7161D",
"= c #BE181E",
"- c #C1191E",
"; c #D91A22",
": c #DF1C22",
"> c #E41D23",
", c #EB1C23",
"< c #E91C24",
/* pixels */
" +              ",
" $              ",
"                ",
"      .         ",
"     ,,*#,,     ",
"    %,,<>,,=    ",
"    X,,,,,,#    ",
"     ,,,,,,     ",
"     O,,,,#     ",
"      ;,,:      ",
"       ,,       ",
"       #*       ",
"                ",
"                ",
"              o ",
"              - "
};
