/* XPM */
static char *_24554d995444108d9fe484e0f89bb80jAN7ctrgOaNHsjrx[] = {
/* columns rows colors chars-per-pixel */
"32 32 40 1 ",
"  c None",
". c #7D1014",
"X c #821115",
"o c #801216",
"O c #891215",
"+ c #8E1116",
"@ c #8F1116",
"# c #8F1316",
"$ c #911318",
"% c #9A1318",
"& c #9C1419",
"* c #9D1419",
"= c #A41619",
"- c #A8161A",
"; c #AC151B",
": c #AD171C",
"> c #B0161D",
", c #B5181C",
"< c #BA181E",
"1 c #C71A1E",
"2 c #CE1A1F",
"3 c #D01920",
"4 c #D41B21",
"5 c #D71B22",
"6 c #D81A21",
"7 c #D91A21",
"8 c #DB1B22",
"9 c #DC1B21",
"0 c #DF1C22",
"q c #E01C22",
"w c #E41C22",
"e c #E31C24",
"r c #E61D24",
"t c #E71D24",
"y c #EB1C23",
"u c #EB1D23",
"i c #EC1C23",
"p c #EC1D23",
"a c #EB1D24",
"s c #EC1D24",
/* pixels */
"                                ",
"  yt-                           ",
"  6p                            ",
"   =                            ",
"                                ",
"                                ",
"                                ",
"           6y0    6aq           ",
"         oyyyyy  yyyyy&         ",
"         yyyyyy;+yyyyyy         ",
"         yyyyyy93yyyyyiO        ",
"        .yyyyyyyyyyyyyi%        ",
"         yyyyyyyyyyyyyyo        ",
"         syyyyyyyyyyyyy         ",
"         ,yyyyyyyyyyyy2         ",
"          pyyyyyyyyyyy          ",
"          $yyyyyyyyyy>          ",
"           4yyyyyyyye           ",
"            syyyyyyy            ",
"            &yyyyyy<            ",
"             9syyyt             ",
"              yyyy              ",
"              :py1              ",
"               wa               ",
"                @               ",
"                                ",
"                                ",
"                                ",
"                                ",
"                            q4  ",
"                           oyp  ",
"                            +&  "
};
